# ProBuilder 4.5.2
# https://unity3d.com/unity/features/worldbuilding/probuilder
# 10/21/2021 7:31:07 PM

mtllib ./Laser_Sight.mtl
o Laser Sight

g Cylinder
v 0 0 0
v 0 10 0
v 4 0 4
v 4 10 4
v 8 0 -3.496911E-07
v 8 10 -3.496911E-07
v 4 0 -4
v 4 10 -4
v 4 0 0
v 4 10 0

vt 0 0
vt 0 10
vt 5.656854 0
vt 5.656854 10
vt -5.656854 0
vt -5.656854 10
vt 4 0
vt 4 4
vt -4 0
vt -4 4
vt 8 -3.496911E-07
vt -8 -3.496911E-07
vt 4 -4
vt -4 -4

vn -0.7071068 0 0.7071068
vn 0.7071068 0 0.7071067
vn 0.7071068 0 -0.7071068
vn -0.7071068 0 -0.7071068
vn 0 -1 0
vn 0 1 0

usemtl Lazer_Red
f 1/1/5 9/7/5 3/8/5
f 3/8/5 9/7/5 5/11/5
f 5/11/5 9/7/5 7/13/5
f 7/13/5 9/7/5 1/1/5
f 4/10/6 10/9/6 2/1/6
f 6/12/6 10/9/6 4/10/6
f 8/14/6 10/9/6 6/12/6
f 2/1/6 10/9/6 8/14/6
f 4/4/1 2/2/1 1/1/1
f 1/1/1 3/3/1 4/4/1
f 6/4/2 4/2/2 3/1/2
f 3/1/2 5/3/2 6/4/2
f 8/2/3 6/6/3 5/5/3
f 5/5/3 7/1/3 8/2/3
f 2/2/4 8/6/4 7/5/4
f 7/5/4 1/1/4 2/2/4

